# xmcd CD database file
#
# Track frame offsets:
#	150
#	12680
#	31507
#	44552
#	59855
#	75427
#	100515
#	113292
#	136297
#	156215
#	173492
#	189887
#	204240
#	221045
#	243002
#	256870
#
# Disc length: 3660 seconds
#
# Revision: 1
# Processed by: cddbd v1.5.1PL0 Copyright (c) Steve Scherf et al.
# Submitted via: CDex 1.51
#
DISCID=c20e4a10
DTITLE=Various Artist - Back to their roots
DYEAR=2004
DGENRE=Blues
TTITLE0=Knock-out Greg - I don't know
TTITLE1=Thomas Grahn - Love that woman
TTITLE2=Sven Zetterberg - I wanna be loved
TTITLE3=Thomas Hammarlund - Come into my arms
TTITLE4=Thomas Grahn - I'm a natural born lover
TTITLE5=Sven Zetterberg - Losing hand
TTITLE6=Knock-out Greg - Steady
TTITLE7=Thomas Hammarlund - Crying won't help you
TTITLE8=Sven Zetterberg - All pretty woman
TTITLE9=Knock-out Greg - Little by little
TTITLE10=Thomas Hammarlund - Take it easy baby
TTITLE11=Thomas Grahn - Lawdy lawdy
TTITLE12=Knock-out Greg - Heart fixin' business
TTITLE13=Thomas Hammarlund - I met a strange woman
TTITLE14=Sven Zetterberg - You ought to be ashamed
TTITLE15=Thomas Grahn - Calling all blues
EXTD=YEAR: 2004
EXTT0=
EXTT1=
EXTT2=
EXTT3=
EXTT4=
EXTT5=
EXTT6=
EXTT7=
EXTT8=
EXTT9=
EXTT10=
EXTT11=
EXTT12=
EXTT13=
EXTT14=
EXTT15=
PLAYORDER=
